<svg xmlns="http://www.w3.org/2000/svg" xmlns:xlink="http://www.w3.org/1999/xlink" width="1728" zoomAndPan="magnify" viewBox="0 0 1296 1727.999927" height="2304" preserveAspectRatio="xMidYMid meet" version="1.0"><defs><clipPath id="a361984086"><path d="M 557 971 L 639 971 L 639 1052.5 L 557 1052.5 Z M 557 971 " clip-rule="nonzero"/></clipPath></defs><rect x="-129.6" width="1555.2" fill="#ffffff" y="-172.799993" height="2073.599912" fill-opacity="1"/><rect x="-129.6" width="1555.2" fill="#ffffff" y="-172.799993" height="2073.599912" fill-opacity="1"/><rect x="-129.6" width="1555.2" fill="#ffffff" y="-172.799993" height="2073.599912" fill-opacity="1"/><path fill="#c1ff72" d="M 918.597656 612.636719 L 852.371094 641.746094 L 868.101562 677.648438 L 833.53125 691.234375 L 700.292969 628.355469 L 634.066406 645.820312 L 633.871094 645.046875 L 428.578125 645.046875 L 444.3125 609.144531 L 378.082031 580.03125 L 259.800781 849.59375 L 326.03125 878.703125 L 344.480469 836.785156 L 366.816406 836.785156 L 427.609375 881.421875 L 425.277344 883.75 C 412.652344 896.363281 412.652344 916.9375 425.277344 929.550781 C 437.902344 942.164062 458.488281 942.164062 471.113281 929.550781 L 476.164062 924.503906 C 463.539062 937.121094 463.539062 957.691406 476.164062 970.304688 C 488.789062 982.921875 509.375 982.921875 522 970.304688 L 525.105469 967.199219 C 514.230469 978.066406 514.230469 995.535156 525.105469 1006.402344 C 535.984375 1017.269531 553.464844 1017.269531 564.339844 1006.402344 L 574.632812 996.117188 C 563.757812 1006.984375 563.757812 1024.449219 574.632812 1035.320312 C 585.507812 1046.1875 602.988281 1046.1875 613.867188 1035.320312 L 622.023438 1027.167969 C 622.605469 1026.585938 622.996094 1026.199219 623.382812 1025.613281 L 626.296875 1027.75 C 645.136719 1041.722656 671.355469 1039.976562 688.445312 1023.867188 L 700.101562 1012.804688 L 703.207031 1015.328125 C 722.628906 1031.242188 750.984375 1029.882812 768.464844 1012.03125 L 779.730469 1000.773438 L 775.070312 999.222656 C 775.652344 999.027344 776.429688 998.832031 777.011719 998.640625 L 777.207031 998.640625 C 789.441406 1008.730469 807.503906 1007.371094 818.378906 995.726562 C 828.089844 985.25 828.867188 969.917969 821.488281 958.660156 L 822.652344 957.496094 L 833.917969 966.425781 C 848.289062 977.679688 869.070312 975.546875 880.726562 961.378906 C 892.574219 947.015625 890.628906 925.667969 876.257812 913.832031 L 872.761719 910.921875 L 929.667969 869 L 952.003906 869 L 970.457031 910.921875 L 1036.683594 881.808594 Z M 918.597656 612.636719 " fill-opacity="1" fill-rule="nonzero"/><path fill="#026615" d="M 377.835938 580.183594 L 444.191406 609.230469 L 326.117188 878.535156 L 259.761719 849.488281 Z M 377.835938 580.183594 " fill-opacity="1" fill-rule="nonzero"/><path fill="#026615" d="M 1036.625 882.058594 L 970.265625 911.105469 L 852.195312 641.800781 L 918.550781 612.753906 Z M 1036.625 882.058594 " fill-opacity="1" fill-rule="nonzero"/><path fill="#000000" d="M 326.03125 887.4375 C 324.867188 887.4375 323.699219 887.242188 322.535156 886.660156 L 256.304688 857.550781 C 251.839844 855.609375 249.894531 850.371094 251.839844 846.101562 L 369.925781 576.734375 C 370.894531 574.597656 372.644531 572.851562 374.78125 572.074219 C 376.917969 571.300781 379.441406 571.300781 381.382812 572.269531 L 447.613281 601.378906 C 452.078125 603.320312 454.023438 608.558594 452.078125 612.828125 L 334.1875 882.199219 C 333.214844 884.332031 331.46875 886.078125 329.332031 886.855469 C 328.167969 887.242188 327.195312 887.4375 326.03125 887.4375 Z M 271.261719 845.128906 L 321.5625 867.0625 L 432.65625 613.800781 L 382.355469 591.675781 Z M 271.261719 845.128906 " fill-opacity="1" fill-rule="nonzero"/><path fill="#000000" d="M 734.28125 1035.320312 C 721.464844 1035.320312 708.453125 1031.050781 697.769531 1022.121094 L 615.226562 953.808594 C 611.535156 950.703125 610.953125 945.269531 614.058594 941.582031 C 617.167969 937.894531 622.605469 937.3125 626.296875 940.417969 L 708.839844 1008.535156 C 724.765625 1021.734375 747.878906 1020.570312 762.445312 1005.820312 L 773.710938 994.5625 C 777.011719 991.070312 782.644531 991.070312 786.140625 994.5625 C 789.636719 997.863281 789.636719 1003.492188 786.140625 1006.984375 L 774.875 1018.242188 C 763.609375 1029.496094 749.042969 1035.320312 734.28125 1035.320312 Z M 734.28125 1035.320312 " fill-opacity="1" fill-rule="nonzero"/><path fill="#000000" d="M 655.234375 1045.992188 C 643.386719 1045.992188 631.539062 1042.304688 621.246094 1034.738281 L 364.097656 845.324219 L 344.480469 845.324219 C 341.566406 845.324219 338.847656 843.773438 337.101562 841.445312 C 335.351562 839.113281 335.160156 835.816406 336.324219 833.097656 L 420.226562 641.550781 C 421.585938 638.445312 424.695312 636.3125 428.191406 636.3125 L 633.675781 636.3125 C 638.53125 636.3125 642.417969 640.195312 642.417969 645.046875 C 642.417969 649.898438 638.53125 653.777344 633.675781 653.777344 L 434.210938 653.777344 L 357.882812 827.859375 L 367.011719 827.859375 C 368.953125 827.859375 370.703125 828.441406 372.253906 829.605469 L 631.734375 1020.761719 C 647.273438 1032.214844 668.636719 1030.855469 682.621094 1017.464844 L 694.273438 1006.402344 C 697.769531 1003.101562 703.207031 1003.296875 706.703125 1006.789062 C 710.003906 1010.285156 709.8125 1015.71875 706.316406 1019.210938 L 694.660156 1030.273438 C 683.785156 1040.753906 669.605469 1045.992188 655.234375 1045.992188 Z M 655.234375 1045.992188 " fill-opacity="1" fill-rule="nonzero"/><path fill="#000000" d="M 854.699219 982.335938 C 845.570312 982.335938 836.25 979.425781 828.480469 973.214844 L 691.941406 865.894531 C 688.058594 862.984375 687.476562 857.355469 690.390625 853.667969 C 693.300781 849.789062 698.933594 849.207031 702.625 852.117188 L 839.164062 959.4375 C 849.84375 967.78125 865.1875 966.230469 873.925781 955.75 C 878.199219 950.703125 880.144531 944.105469 879.558594 937.507812 C 878.976562 930.910156 875.675781 924.894531 870.625 920.625 L 653.679688 741.691406 C 649.992188 738.585938 649.410156 733.152344 652.515625 729.464844 C 655.625 725.777344 661.0625 725.195312 664.75 728.300781 L 881.503906 907.234375 C 890.242188 914.414062 895.679688 924.699219 896.652344 935.957031 C 897.816406 947.210938 894.320312 958.273438 887.132812 967.007812 C 878.976562 977.097656 866.9375 982.335938 854.699219 982.335938 Z M 854.699219 982.335938 " fill-opacity="1" fill-rule="nonzero"/><path fill="#000000" d="M 796.238281 1013.972656 C 787.5 1013.972656 778.757812 1011.058594 771.765625 1005.238281 L 653.679688 909.171875 C 649.992188 906.070312 649.410156 900.632812 652.515625 896.949219 C 655.625 893.261719 661.0625 892.679688 664.75 895.78125 L 782.644531 991.847656 C 791.382812 999.027344 804.203125 998.058594 811.972656 989.90625 C 816.050781 985.441406 818.1875 979.621094 817.605469 973.605469 C 817.214844 967.589844 814.300781 962.15625 809.445312 958.46875 L 778.175781 934.015625 C 774.292969 931.101562 773.710938 925.476562 776.625 921.789062 C 779.535156 918.101562 785.167969 917.324219 788.859375 920.234375 L 820.128906 944.6875 C 828.675781 951.480469 834.113281 961.378906 834.890625 972.246094 C 835.667969 983.113281 831.976562 993.789062 824.59375 1001.746094 C 817.214844 1009.703125 806.726562 1013.972656 796.238281 1013.972656 Z M 796.238281 1013.972656 " fill-opacity="1" fill-rule="nonzero"/><path fill="#000000" d="M 970.457031 919.847656 C 969.289062 919.847656 968.320312 919.652344 967.347656 919.265625 C 965.210938 918.488281 963.464844 916.742188 962.492188 914.609375 L 844.210938 645.238281 C 843.242188 643.105469 843.242188 640.777344 844.019531 638.640625 C 844.792969 636.507812 846.542969 634.761719 848.679688 633.789062 L 914.910156 604.679688 C 919.375 602.738281 924.425781 604.679688 926.367188 609.144531 L 1044.453125 878.511719 C 1046.394531 882.972656 1044.453125 888.019531 1039.988281 889.960938 L 973.757812 919.070312 C 972.785156 919.460938 971.621094 919.847656 970.457031 919.847656 Z M 863.828125 646.210938 L 974.921875 899.46875 L 1025.226562 877.539062 L 914.132812 624.085938 Z M 863.828125 646.210938 " fill-opacity="1" fill-rule="nonzero"/><path fill="#000000" d="M 872.761719 919.652344 C 870.042969 919.652344 867.519531 918.488281 865.769531 916.160156 C 862.855469 912.277344 863.828125 906.84375 867.710938 903.933594 L 924.621094 862.015625 C 926.171875 860.851562 927.921875 860.269531 929.863281 860.269531 L 938.992188 860.269531 L 863.828125 688.710938 L 837.21875 699.191406 C 834.890625 700.160156 832.363281 699.96875 830.226562 698.996094 L 699.515625 637.476562 L 585.898438 667.558594 L 515.980469 759.546875 C 539.867188 772.550781 569.582031 770.609375 591.53125 754.113281 L 626.878906 724.808594 C 629.402344 722.671875 632.898438 722.285156 635.8125 723.449219 C 636.785156 723.835938 659.3125 732.570312 687.085938 717.046875 C 691.359375 714.714844 696.605469 716.074219 698.933594 720.34375 C 701.265625 724.613281 699.90625 729.855469 695.632812 732.183594 C 668.441406 747.515625 644.554688 743.828125 634.257812 741.109375 L 602.601562 767.695312 C 602.40625 767.695312 602.40625 767.890625 602.210938 767.890625 C 572.886719 790.015625 532.488281 791.375 501.605469 771.382812 L 498.304688 769.25 C 496.363281 767.890625 494.808594 765.757812 494.421875 763.429688 C 494.03125 761.097656 494.613281 758.574219 496.167969 756.636719 L 573.855469 654.75 C 575.023438 653.195312 576.769531 652.03125 578.519531 651.644531 L 697.964844 620.011719 C 699.90625 619.429688 702.042969 619.621094 703.984375 620.59375 L 833.722656 681.726562 L 864.800781 669.5 C 869.265625 667.75 874.121094 669.886719 876.0625 674.15625 L 959.96875 865.703125 C 961.132812 868.417969 960.9375 871.523438 959.191406 874.046875 C 957.441406 876.570312 954.917969 877.929688 951.808594 877.929688 L 932.195312 877.929688 L 877.617188 918.101562 C 876.257812 919.070312 874.511719 919.652344 872.761719 919.652344 Z M 872.761719 919.652344 " fill-opacity="1" fill-rule="nonzero"/><path fill="#c1ff72" d="M 503.546875 897.335938 L 471.308594 929.550781 C 458.683594 942.164062 438.097656 942.164062 425.472656 929.550781 C 412.847656 916.9375 412.847656 896.363281 425.472656 883.75 L 457.710938 851.535156 C 470.335938 838.921875 490.925781 838.921875 503.546875 851.535156 C 516.171875 864.148438 516.171875 884.722656 503.546875 897.335938 Z M 503.546875 897.335938 " fill-opacity="1" fill-rule="nonzero"/><path fill="#000000" d="M 448.390625 947.792969 C 437.902344 947.792969 427.21875 943.71875 419.257812 935.761719 C 411.488281 928 407.214844 917.710938 407.214844 906.652344 C 407.214844 895.589844 411.488281 885.304688 419.257812 877.539062 L 451.496094 845.324219 C 467.617188 829.21875 493.644531 829.21875 509.761719 845.324219 C 517.53125 853.085938 521.804688 863.375 521.804688 874.433594 C 521.804688 885.496094 517.53125 895.78125 509.761719 903.546875 L 477.523438 935.761719 C 469.367188 943.71875 458.878906 947.792969 448.390625 947.792969 Z M 480.4375 850.757812 C 474.414062 850.757812 468.199219 853.085938 463.734375 857.746094 L 431.492188 889.765625 C 427.027344 894.230469 424.5 900.246094 424.5 906.457031 C 424.5 912.859375 427.027344 918.683594 431.492188 923.148438 C 440.816406 932.460938 455.769531 932.460938 465.09375 923.148438 L 497.332031 890.929688 C 501.800781 886.46875 504.324219 880.453125 504.324219 874.242188 C 504.324219 867.835938 501.800781 862.015625 497.332031 857.550781 C 492.671875 853.085938 486.652344 850.757812 480.4375 850.757812 Z M 480.4375 850.757812 " fill-opacity="1" fill-rule="nonzero"/><path fill="#c1ff72" d="M 545.695312 947.015625 L 522.195312 970.5 C 509.570312 983.113281 488.980469 983.113281 476.359375 970.5 C 463.734375 957.886719 463.734375 937.3125 476.359375 924.699219 L 499.859375 901.21875 C 512.484375 888.601562 533.070312 888.601562 545.695312 901.21875 C 558.511719 913.636719 558.511719 934.207031 545.695312 947.015625 Z M 545.695312 947.015625 " fill-opacity="1" fill-rule="nonzero"/><path fill="#000000" d="M 499.277344 988.742188 C 488.203125 988.742188 477.910156 984.472656 470.140625 976.710938 C 462.375 968.945312 458.101562 958.660156 458.101562 947.597656 C 458.101562 936.539062 462.375 926.25 470.140625 918.488281 L 493.644531 895.007812 C 501.410156 887.242188 511.707031 882.972656 522.777344 882.972656 C 533.847656 882.972656 544.140625 887.242188 551.910156 895.007812 C 559.679688 902.769531 563.953125 913.054688 563.953125 924.117188 C 563.953125 935.179688 559.679688 945.464844 551.910156 953.226562 L 528.410156 976.710938 C 520.640625 984.472656 510.347656 988.742188 499.277344 988.742188 Z M 522.777344 900.246094 C 516.367188 900.246094 510.539062 902.769531 506.074219 907.234375 L 482.574219 930.714844 C 478.105469 935.179688 475.582031 941.195312 475.582031 947.40625 C 475.582031 953.808594 478.105469 959.632812 482.574219 964.09375 C 487.039062 968.558594 493.0625 971.082031 499.277344 971.082031 C 505.683594 971.082031 511.511719 968.558594 515.980469 964.09375 L 539.480469 940.613281 C 543.945312 936.148438 546.472656 930.132812 546.472656 923.921875 C 546.472656 917.519531 543.945312 911.695312 539.480469 907.234375 C 535.011719 902.769531 529.1875 900.246094 522.777344 900.246094 Z M 545.695312 947.015625 Z M 545.695312 947.015625 " fill-opacity="1" fill-rule="nonzero"/><path fill="#c1ff72" d="M 591.917969 979.039062 L 564.535156 1006.402344 C 553.65625 1017.269531 536.175781 1017.269531 525.300781 1006.402344 C 514.425781 995.535156 514.425781 978.066406 525.300781 967.199219 L 552.6875 939.835938 C 563.5625 928.96875 581.042969 928.96875 591.917969 939.835938 C 602.796875 950.703125 602.796875 968.363281 591.917969 979.039062 Z M 591.917969 979.039062 " fill-opacity="1" fill-rule="nonzero"/><path fill="#000000" d="M 544.917969 1023.285156 C 535.207031 1023.285156 526.078125 1019.40625 519.085938 1012.613281 C 512.289062 1005.820312 508.402344 996.503906 508.402344 986.800781 C 508.402344 977.097656 512.289062 967.976562 519.085938 960.988281 L 546.472656 933.625 C 560.648438 919.460938 583.761719 919.460938 597.941406 933.625 C 604.738281 940.417969 608.621094 949.734375 608.621094 959.4375 C 608.621094 969.140625 604.738281 978.261719 597.941406 985.25 L 570.554688 1012.613281 C 563.757812 1019.597656 554.628906 1023.285156 544.917969 1023.285156 Z M 572.300781 940.613281 C 567.445312 940.613281 562.589844 942.554688 558.902344 946.242188 L 531.515625 973.605469 C 528.019531 977.097656 525.882812 981.949219 525.882812 986.996094 C 525.882812 992.042969 527.824219 996.894531 531.515625 1000.386719 C 535.011719 1003.878906 539.867188 1006.015625 544.917969 1006.015625 C 549.96875 1006.015625 554.824219 1004.074219 558.320312 1000.386719 L 585.703125 973.023438 C 589.199219 969.527344 591.335938 964.675781 591.335938 959.632812 C 591.335938 954.585938 589.394531 949.734375 585.703125 946.242188 C 582.015625 942.359375 577.15625 940.613281 572.300781 940.613281 Z M 572.300781 940.613281 " fill-opacity="1" fill-rule="nonzero"/><path fill="#c1ff72" d="M 622.21875 1027.167969 L 614.058594 1035.320312 C 603.183594 1046.1875 585.703125 1046.1875 574.828125 1035.320312 C 563.953125 1024.449219 563.953125 1006.984375 574.828125 996.117188 L 582.984375 987.964844 C 593.859375 977.097656 611.339844 977.097656 622.21875 987.964844 C 633.09375 998.832031 633.09375 1016.492188 622.21875 1027.167969 Z M 622.21875 1027.167969 " fill-opacity="1" fill-rule="nonzero"/><g clip-path="url(#a361984086)"><path fill="#000000" d="M 594.445312 1052.203125 C 584.734375 1052.203125 575.605469 1048.320312 568.613281 1041.527344 C 554.433594 1027.363281 554.433594 1004.265625 568.613281 990.101562 L 576.769531 981.949219 C 590.949219 967.78125 614.058594 967.78125 628.238281 981.949219 C 635.035156 988.742188 638.921875 998.058594 638.921875 1007.761719 C 638.921875 1017.464844 635.035156 1026.585938 628.238281 1033.570312 L 620.082031 1041.722656 C 613.285156 1048.515625 604.15625 1052.203125 594.445312 1052.203125 Z M 602.601562 988.742188 C 597.746094 988.742188 592.890625 990.683594 589.199219 994.371094 L 581.042969 1002.519531 C 573.664062 1009.894531 573.664062 1021.929688 581.042969 1029.300781 C 584.539062 1032.796875 589.394531 1034.929688 594.445312 1034.929688 C 599.492188 1034.929688 604.347656 1032.988281 607.84375 1029.300781 L 616.003906 1021.152344 C 619.5 1017.660156 621.636719 1012.804688 621.636719 1007.761719 C 621.636719 1002.714844 619.691406 997.863281 616.003906 994.371094 C 612.3125 990.488281 607.457031 988.742188 602.601562 988.742188 Z M 602.601562 988.742188 " fill-opacity="1" fill-rule="nonzero"/></g></svg>