<svg style="object-fit:cover" id="my-svg" version="1" baseProfile="full" width="100%" height="100%" viewBox="0 0 1280 587" xmlns="http://www.w3.org/2000/svg"><rect width="1280" height="587" fill="#000" style="--darkreader-inline-fill: #000000;" data-darkreader-inline-fill=""/><defs><linearGradient id="linear-gradient" x1="0" x2="1" y1="0" y2="1"><stop offset="0%" stop-color="#c81d1190" style="--darkreader-inline-stopcolor: rgba(160, 23, 14, 0.56);" data-darkreader-inline-stopcolor=""/><stop offset="100%" stop-color="#1c39bb90" style="--darkreader-inline-stopcolor: rgba(22, 46, 150, 0.56);" data-darkreader-inline-stopcolor=""/></linearGradient></defs><path transform="scale(1, 1)" style="transform-origin: center center 0px; --darkreader-inline-stroke: none;" d="M 0,587 V 0,293 C 120.98809523809521,254.75 241.97619047619042,216.5 349,209 C 456.0238095238096,201.5 549.0833333333334,224.75 652,221 C 754.9166666666666,217.25 867.6904761904761,186.5 974,194 C 1080.3095238095239,201.5 1180.154761904762,247.25 1280,293 C 1280,293 1280,587 1280,587 Z" stroke="none" stroke-width="0" fill="url(#linear-gradient)" class="transition-all duration-300 ease-in-out delay-150" data-darkreader-inline-stroke=""/><defs><linearGradient id="linear-gradient" x1="0" x2="1" y1="0" y2="1"><stop offset="0%" stop-color="#c81d11ff" style="--darkreader-inline-stopcolor: #a0170e;" data-darkreader-inline-stopcolor=""/><stop offset="100%" stop-color="#1c39bbff" style="--darkreader-inline-stopcolor: #162e96;" data-darkreader-inline-stopcolor=""/></linearGradient></defs><path transform="scale(1, 1)" style="transform-origin: center center 0px; --darkreader-inline-stroke: none;" d="M 0,587 V 0,440 C 78.34523809523807,488.67857142857144 156.69047619047615,537.3571428571429 278,533 C 399.30952380952385,528.6428571428571 563.5833333333334,471.24999999999994 686,425 C 808.4166666666666,378.75000000000006 888.9761904761906,343.64285714285717 981,348 C 1073.0238095238094,352.35714285714283 1176.5119047619046,396.17857142857144 1280,440 C 1280,440 1280,587 1280,587 Z" stroke="none" stroke-width="0" fill="url(#linear-gradient)" class="transition-all duration-300 ease-in-out delay-150" data-darkreader-inline-stroke=""/></svg>